<svg xmlns="http://www.w3.org/2000/svg" width="84" height="69.273" viewBox="0 0 84 69.273">
  <g id="_x30_7_Video_player" transform="translate(0 -44.882)">
    <g id="Grupo_1177039" data-name="Grupo 1177039" transform="translate(0 44.882)">
      <path id="Trazado_992371" data-name="Trazado 992371" d="M84,48.456v62.124a3.573,3.573,0,0,1-3.574,3.574H3.574A3.651,3.651,0,0,1,2.529,114,3.579,3.579,0,0,1,0,110.581V48.456a3.579,3.579,0,0,1,2.529-3.423,3.658,3.658,0,0,1,1.045-.152H80.426A3.573,3.573,0,0,1,84,48.456Z" transform="translate(0 -44.882)" fill="#efd36e"/>
      <path id="Trazado_992372" data-name="Trazado 992372" d="M179.355,400.292a1.8,1.8,0,0,1-1.795,1.795H122.279a1.795,1.795,0,0,1,0-3.59h55.282A1.8,1.8,0,0,1,179.355,400.292Z" transform="translate(-100.717 -340.482)" fill="#edf6fe"/>
      <path id="Trazado_992373" data-name="Trazado 992373" d="M146.981,398.5H122.373a1.861,1.861,0,0,0-1.866,1.494,1.8,1.8,0,0,0,1.77,2.1h24.7Z" transform="translate(-100.716 -340.483)" fill="#f37769"/>
      <path id="Trazado_992374" data-name="Trazado 992374" d="M39.935,384.436H34.467a1.787,1.787,0,0,0-1.787,1.787v4.629a1.787,1.787,0,0,0,1.787,1.787h5.468a1.787,1.787,0,0,0,1.787-1.787v-4.629A1.787,1.787,0,0,0,39.935,384.436Z" transform="translate(-27.318 -328.728)" fill="#f2fdff"/>
      <path id="Trazado_992375" data-name="Trazado 992375" d="M105.957,120.771V79.361a1.787,1.787,0,0,0-1.787-1.787h-69.7a1.787,1.787,0,0,0-1.787,1.787v41.409a1.787,1.787,0,0,0,1.787,1.787h69.7A1.787,1.787,0,0,0,105.957,120.771Z" transform="translate(-27.318 -72.21)" fill="#70ccef"/>
      <path id="Trazado_992376" data-name="Trazado 992376" d="M280.57,384.209v5.106a1.9,1.9,0,1,1-3.794,0v-5.106a1.9,1.9,0,0,1,3.794,0Z" transform="translate(-231.367 -326.952)" fill="#5e707c"/>
      <path id="Trazado_992377" data-name="Trazado 992377" d="M203.758,149.676A12.757,12.757,0,1,1,191,136.924,12.757,12.757,0,0,1,203.758,149.676Z" transform="translate(-149.001 -121.823)" fill="#f2fdff"/>
      <g id="Grupo_1177038" data-name="Grupo 1177038" transform="translate(8.642 21.664)">
        <path id="Trazado_992378" data-name="Trazado 992378" d="M244.526,183.892l-7.727,5.254a.936.936,0,0,1-1.462-.774V177.864a.936.936,0,0,1,1.462-.774l7.727,5.254A.936.936,0,0,1,244.526,183.892Z" transform="translate(-205.369 -176.927)" fill="#f37769"/>
        <path id="Trazado_992379" data-name="Trazado 992379" d="M55.676,399.389,53.154,401.1a.306.306,0,0,1-.478-.253v-3.431a.306.306,0,0,1,.478-.253l2.522,1.715A.306.306,0,0,1,55.676,399.389Z" transform="translate(-52.676 -360.991)" fill="#f37769"/>
      </g>
    </g>
  </g>
</svg>
